<?xml version="1.0" encoding="utf-8"?>
<!-- Generator: Adobe Illustrator 25.3.0, SVG Export Plug-In . SVG Version: 6.00 Build 0)  -->
<svg version="1.1" id="Layer_1" xmlns="http://www.w3.org/2000/svg" xmlns:xlink="http://www.w3.org/1999/xlink" x="0px" y="0px"
	 viewBox="0 0 281.5 281.5" style="enable-background:new 0 0 281.5 281.5;" xml:space="preserve">
<style type="text/css">
	.st0{fill:#CCCCCC;}
	.st1{fill:#FFFFFF;}
</style>
<desc>Created with Sketch.</desc>
<g>
	<path class="st0" d="M215.4,215.7c-7,0-12.7-5.7-12.7-12.7v-77.7L170.8,107c-6.1-3.5-8.2-11.2-4.7-17.3c3.5-6.1,11.3-8.2,17.3-4.7
		l38.2,22c3.9,2.3,6.4,6.5,6.4,11v85.1C228.1,210.1,222.4,215.7,215.4,215.7z"/>
</g>
<g>
	<path class="st0" d="M67.3,169.6c-7,0-12.7-5.7-12.7-12.7v-40.2c0-4.5,2.4-8.7,6.2-10.9l73.2-43.1c6-3.6,13.8-1.5,17.4,4.5
		c3.6,6,1.5,13.8-4.5,17.4L80,124v33C80,164,74.3,169.6,67.3,169.6z"/>
</g>
<g>
	<path class="st0" d="M140.9,258.2c-2.2,0-4.4-0.6-6.4-1.7l-73.2-42.5c-6.1-3.5-8.1-11.3-4.6-17.4c3.5-6.1,11.3-8.1,17.4-4.6
		l67,38.9l23.2-12c6.1-3.4,13.9-1.1,17.2,5c3.4,6.1,1.1,13.9-5,17.2L147,256.6C145.1,257.6,143,258.2,140.9,258.2z"/>
</g>
<path class="st1" d="M241.6,159.1v44c0,14.5-11.8,26.2-26.2,26.2c-14.5,0-26.2-11.8-26.2-26.2v-44.5l-25.5,14.7v59.2l51.3,29.6
	l51.3-29.6v-59.2L241.6,159.1z"/>
<path class="st1" d="M140.1,15.5L88.8,45.1v28.5L127.2,51c6-3.6,13.1-4.5,19.9-2.8c6.8,1.8,12.5,6,16,12.1
	c7.3,12.5,3.2,28.6-9.3,35.9l-39.2,23.1l25.4,14.7l51.3-29.6V45.1L140.1,15.5z"/>
<path class="st1" d="M54.6,225.6c-6.1-3.5-10.4-9.2-12.2-16c-1.8-6.8-0.8-13.8,2.7-19.9c7.3-12.5,23.4-16.8,35.9-9.5l37.3,21.7
	v-28.6l-51.3-29.6l-51.3,29.6v59.2l51.3,29.6l25.4-14.6L54.6,225.6z"/>
<path class="st1" d="M178.3,224.1"/>
<path class="st1" d="M183.2,222.8"/>
<path class="st1" d="M163.4,232.5"/>
</svg>
